<?xml version="1.0" encoding="UTF-8" standalone="no"?>
<!-- Created with Inkscape (http://www.inkscape.org/) -->

<svg
    width="16mm"
    height="16mm"
    viewBox="0 0 16 16"
    version="1.1"
    id="svg1"
    xml:space="preserve"
    inkscape:version="1.4 (86a8ad7, 2024-10-11)"
    sodipodi:docname="drawing.svg"
    xmlns:inkscape="http://www.inkscape.org/namespaces/inkscape"
    xmlns:sodipodi="http://sodipodi.sourceforge.net/DTD/sodipodi-0.dtd"
    xmlns:xlink="http://www.w3.org/1999/xlink"
    xmlns="http://www.w3.org/2000/svg"
    xmlns:svg="http://www.w3.org/2000/svg"><sodipodi:namedview
     id="namedview1"
     pagecolor="#505050"
     bordercolor="#ffffff"
     borderopacity="1"
     inkscape:showpageshadow="0"
     inkscape:pageopacity="0"
     inkscape:pagecheckerboard="1"
     inkscape:deskcolor="#505050"
     inkscape:document-units="mm"
     inkscape:zoom="8.1336326"
     inkscape:cx="14.200297"
     inkscape:cy="35.34706"
     inkscape:window-width="1920"
     inkscape:window-height="1009"
     inkscape:window-x="1072"
     inkscape:window-y="828"
     inkscape:window-maximized="1"
     inkscape:current-layer="g1" /><defs
     id="defs1"><linearGradient
       id="swatch4"
       inkscape:swatch="solid"><stop
         style="stop-color:#ffffff;stop-opacity:1;"
         offset="0"
         id="stop5" /></linearGradient><linearGradient
       inkscape:collect="always"
       xlink:href="#linearGradient9"
       id="linearGradient11"
       x1="24.233141"
       y1="10.179921"
       x2="23.961384"
       y2="39.01083"
       gradientUnits="userSpaceOnUse"
       gradientTransform="matrix(1.7163582,0,0,1.7163582,-384.54737,-549.03413)" /><linearGradient
       id="linearGradient9"
       inkscape:collect="always"><stop
         style="stop-color:#ffdeaa;stop-opacity:1;"
         offset="0"
         id="stop10" /><stop
         style="stop-color:#ff7474;stop-opacity:1;"
         offset="1"
         id="stop11" /></linearGradient></defs><g
     inkscape:label="Layer 1"
     inkscape:groupmode="layer"
     id="layer1"><g
       style="fill:none"
       id="g1"
       transform="matrix(0.26458333,0,0,0.26458333,98.590658,141.96439)"><g
         id="g11"
         transform="matrix(1.1686434,0,0,1.1686434,58.117997,86.277585)"><path
           d="m -326.75331,-531.63027 c 0.64759,0.52177 0.64759,0.52177 1.02141,1.31284 -0.045,1.81728 -0.72671,3.17887 -1.61715,4.73887 -1.84715,3.39496 -3.07211,6.85908 -3.48936,10.68776 0.1404,-0.17043 0.2808,-0.34087 0.42549,-0.51662 1.54764,-1.80201 3.08446,-3.51528 5.58657,-3.88361 0.87723,-0.0292 1.64135,-0.051 2.49867,0.13337 0.76361,1.1043 0.76945,1.48344 0.77992,2.7762 0.003,0.36731 0.009,0.73461 0.0137,1.11306 8.6e-4,0.39803 0.002,0.79588 0.002,1.20592 0.003,0.61651 0.003,0.61651 0.007,1.24556 0.003,0.87259 0.005,1.74485 0.005,2.61744 0,0.88753 0.005,1.77489 0.0137,2.66225 0.012,1.28503 0.0154,2.5699 0.0172,3.85494 0.005,0.39133 0.0103,0.78266 0.0154,1.18583 -0.0297,5.3516 -2.20209,10.25764 -5.95919,14.19222 -4.44983,4.18689 -9.88228,6.03334 -16.00676,6.0076 -4.89746,-0.12272 -9.62997,-1.87032 -13.27054,-5.02292 -0.25539,-0.21575 -0.51079,-0.43167 -0.77408,-0.65394 -3.92188,-3.52316 -6.25887,-7.93798 -6.45625,-13.10096 -0.13405,-6.4638 1.15065,-11.59451 5.88059,-16.49592 2.42401,-2.18389 5.64355,-4.57478 9.03336,-4.97211 0.99291,0.12306 1.44981,0.45363 2.18887,1.08714 0.19447,-0.24613 0.38893,-0.49243 0.58923,-0.7461 4.4373,-5.4007 11.85283,-10.89358 19.49645,-9.42882 z m -13.54978,9.0622 c -2.74103,2.64371 -4.71295,5.56375 -6.34469,8.93536 -0.8091,1.66573 -0.8091,1.66573 -1.55279,2.02428 -1.00013,0.10263 -1.00013,0.10263 -2.04264,0 -0.89577,-0.921 -1.25071,-1.8317 -1.59587,-3.03607 -0.0855,-0.29281 -0.17112,-0.58562 -0.25934,-0.88736 -0.0618,-0.22158 -0.12375,-0.44333 -0.18743,-0.67178 -2.79749,0.89439 -4.46596,3.40508 -5.77812,5.84145 -1.93588,4.00272 -2.46967,8.41874 -1.04131,12.67771 1.86602,4.49755 4.86587,7.94331 9.37131,10.11879 4.10553,1.61698 9.67614,1.54112 13.81686,0.064 4.61666,-2.20466 7.83826,-5.68338 9.5469,-10.33917 0.59849,-1.9424 0.68379,-3.69789 0.67144,-5.71187 -3.5e-4,-0.29641 -8.6e-4,-0.59283 -10e-4,-0.89817 -0.002,-0.94296 -0.007,-1.8861 -0.0103,-2.82907 -0.002,-0.64089 -0.003,-1.28178 -0.005,-1.92249 -0.003,-1.5679 -0.0103,-3.13579 -0.0172,-4.70368 -1.62693,1.21483 -1.62693,1.21483 -2.82856,2.79509 -0.18142,0.30087 -0.18142,0.30087 -0.36644,0.60776 -0.2408,0.41536 -0.47835,0.8326 -0.7128,1.2514 -0.36765,0.60261 -0.36765,0.60261 -1.19871,1.58213 -1.28864,0.3026 -1.28864,0.3026 -2.38316,0.32817 -1.46096,-2.11541 -1.97484,-3.74595 -1.89366,-6.27724 0.009,-0.45088 0.009,-0.45088 0.0172,-0.91087 0.13199,-3.84069 1.27698,-7.23067 2.88126,-10.73616 0.38309,-0.80755 0.38309,-0.80755 0.69821,-1.76939 -3.30777,0 -6.46449,2.3315 -8.78381,4.46716 z"
           fill="#ffffff"
           id="path1"
           style="fill:url(#linearGradient11);stroke-width:1.71636" /><path
           d="m -344.79635,-505.04388 h 4.08528 v 8.20574 h -4.08528 z"
           fill="#ffffff"
           id="path2"
           style="fill:#ffffff;fill-opacity:1;stroke-width:1.71636"
           sodipodi:nodetypes="ccccc" /><path
           d="m -353.30725,-505.04388 c 1.34819,0 2.69639,0 4.08527,0 0,2.7079 0,5.4158 0,8.20574 -1.34803,0 -2.69623,0 -4.08527,0 0,-2.7079 0,-5.4158 0,-8.20574 z"
           fill="#ffffff"
           id="path3"
           style="fill:#ffffff;fill-opacity:1;stroke-width:1.71636" /></g></g></g></svg>